<svg width="181" height="371" viewBox="0 0 181 371" fill="none" xmlns="http://www.w3.org/2000/svg">
    <path d="M121.08 72.15C125.34 72.05 129.653 72.0833 134.02 72.25C149.78 72.86 163.04 83.23 168.32 97.83C169.44 100.923 170.227 105.72 170.68 112.22C173.58 154.08 176.6 196.113 179.74 238.32C180.273 245.507 180.18 250.833 179.46 254.3C177.327 264.533 172.13 272.787 163.87 279.06C163.543 279.313 163.553 279.547 163.9 279.76C176.54 287.69 182.6 301.4 179.28 315.9C177.067 325.573 174.913 335.343 172.82 345.21C171.72 350.383 170.367 354.313 168.76 357C163.56 365.68 154.59 370.93 144.45 370.9C109.95 370.793 74.8233 370.803 39.07 370.93C34.37 370.943 30.6867 370.5 28.02 369.6C21.38 367.347 16.2333 363.303 12.58 357.47C10.84 354.697 9.42332 350.737 8.32999 345.59C6.18332 335.483 4.12666 326.217 2.15999 317.79C-1.48001 302.21 3.49999 288.28 17.25 279.71C17.2965 279.682 17.3353 279.642 17.3628 279.595C17.3903 279.548 17.4058 279.495 17.4077 279.44C17.4097 279.386 17.3982 279.332 17.3741 279.283C17.3501 279.234 17.3143 279.192 17.27 279.16C8.92332 272.767 3.69332 264.413 1.57999 254.1C0.846658 250.553 0.796656 244.63 1.42999 236.33C4.51666 195.99 7.40332 155.887 10.09 116.02C10.7033 106.887 11.6533 100.63 12.94 97.25C18.36 82.94 31.4 73.05 46.61 72.29C50.9767 72.07 55.48 72.0333 60.12 72.18C60.1878 72.1813 60.2552 72.1691 60.3182 72.144C60.3813 72.119 60.4387 72.0817 60.4871 72.0342C60.5355 71.9867 60.574 71.93 60.6002 71.8675C60.6265 71.8049 60.64 71.7378 60.64 71.67V60.47C60.64 60.0833 60.45 59.8499 60.07 59.7699C49.7 57.5999 42.24 48.88 42.75 38.31C43.06 31.93 47.02 25.05 49.3 18.54C52.04 10.7 56.54 4.71995 64.51 1.81995C67.5366 0.713285 71.53 0.206618 76.49 0.299951C85.9367 0.473285 95.2933 0.473285 104.56 0.299951C113.29 0.139951 120.32 1.78995 126.15 8.33995C130.63 13.36 132.62 21.55 135.6 28.13C137.013 31.2566 137.877 34.1099 138.19 36.6899C139.52 47.7899 131.96 57.77 121 59.73C120.573 59.81 120.36 60.0666 120.36 60.5V71.45C120.36 71.93 120.6 72.1633 121.08 72.15Z" fill="#2DB54B"/>
</svg>
